<svg version="1.2" xmlns="http://www.w3.org/2000/svg" viewBox="0 0 200 200" width="200" height="200">
	<title>New Project</title>
	<style>
		.s0 { fill: #00d3b9 }
		.s1 { fill: #282C34 }
	</style>
	<path id="Layer" class="s0" d="m159.5 158.4c-13.6-5.4-28.1-8.4-43.3-8.4-28.3 0-54.6 10.4-76.2 28.1 0.1-80.3 50.5-146.6 115.9-157.1-4.8 12.8-8.2 26.5-10 40.8-5.6 2.9-10.5 6.7-14.5 11.3 4.3-1.4 8.9-2.5 13.7-3.4q-0.3 2.7-0.4 5.4c-9.8 2.7-18.3 8.1-24.6 15.2 7.5-2.3 15.6-4 24.3-4.9 0 26.4 5.5 51.2 15.1 73z"/>
</svg>